<?xml version="1.0" standalone="no"?>
<!DOCTYPE svg PUBLIC "-//W3C//DTD SVG 1.1//EN" "http://www.w3.org/Graphics/SVG/1.1/DTD/svg11.dtd">
<svg version="1.1" width="1200" height="294" onload="init(evt)" viewBox="0 0 1200 294" xmlns="http://www.w3.org/2000/svg" xmlns:xlink="http://www.w3.org/1999/xlink">
<!-- Flame graph stack visualization. See https://github.com/brendangregg/FlameGraph for latest version, and http://www.brendangregg.com/flamegraphs.html for examples. -->
<!-- NOTES:  -->
<defs>
	<linearGradient id="background" y1="0" y2="1" x1="0" x2="0" >
		<stop stop-color="#eeeeee" offset="5%" />
		<stop stop-color="#eeeeb0" offset="95%" />
	</linearGradient>
</defs>
<style type="text/css">
	text { font-family:Verdana; font-size:12px; fill:rgb(0,0,0); }
	#search, #ignorecase { opacity:0.1; cursor:pointer; }
	#search:hover, #search.show, #ignorecase:hover, #ignorecase.show { opacity:1; }
	#subtitle { text-anchor:middle; font-color:rgb(160,160,160); }
	#title { text-anchor:middle; font-size:17px}
	#unzoom { cursor:pointer; }
	#frames > *:hover { stroke:black; stroke-width:0.5; cursor:pointer; }
	.hide { display:none; }
	.parent { opacity:0.5; }
</style>
<script type="text/ecmascript">
<![CDATA[
	"use strict";
	var details, searchbtn, unzoombtn, matchedtxt, svg, searching, currentSearchTerm, ignorecase, ignorecaseBtn;
	function init(evt) {
		details = document.getElementById("details").firstChild;
		searchbtn = document.getElementById("search");
		ignorecaseBtn = document.getElementById("ignorecase");
		unzoombtn = document.getElementById("unzoom");
		matchedtxt = document.getElementById("matched");
		svg = document.getElementsByTagName("svg")[0];
		searching = 0;
		currentSearchTerm = null;

		// use GET parameters to restore a flamegraphs state.
		var params = get_params();
		if (params.x && params.y)
			zoom(find_group(document.querySelector('[x="' + params.x + '"][y="' + params.y + '"]')));
                if (params.s) search(params.s);
	}

	// event listeners
	window.addEventListener("click", function(e) {
		var target = find_group(e.target);
		if (target) {
			if (target.nodeName == "a") {
				if (e.ctrlKey === false) return;
				e.preventDefault();
			}
			if (target.classList.contains("parent")) unzoom(true);
			zoom(target);
			if (!document.querySelector('.parent')) {
				// we have basically done a clearzoom so clear the url
				var params = get_params();
				if (params.x) delete params.x;
				if (params.y) delete params.y;
				history.replaceState(null, null, parse_params(params));
				unzoombtn.classList.add("hide");
				return;
			}

			// set parameters for zoom state
			var el = target.querySelector("rect");
			if (el && el.attributes && el.attributes.y && el.attributes._orig_x) {
				var params = get_params()
				params.x = el.attributes._orig_x.value;
				params.y = el.attributes.y.value;
				history.replaceState(null, null, parse_params(params));
			}
		}
		else if (e.target.id == "unzoom") clearzoom();
		else if (e.target.id == "search") search_prompt();
		else if (e.target.id == "ignorecase") toggle_ignorecase();
	}, false)

	// mouse-over for info
	// show
	window.addEventListener("mouseover", function(e) {
		var target = find_group(e.target);
		if (target) details.nodeValue = "Function: " + g_to_text(target);
	}, false)

	// clear
	window.addEventListener("mouseout", function(e) {
		var target = find_group(e.target);
		if (target) details.nodeValue = ' ';
	}, false)

	// ctrl-F for search
	// ctrl-I to toggle case-sensitive search
	window.addEventListener("keydown",function (e) {
		if (e.keyCode === 114 || (e.ctrlKey && e.keyCode === 70)) {
			e.preventDefault();
			search_prompt();
		}
		else if (e.ctrlKey && e.keyCode === 73) {
			e.preventDefault();
			toggle_ignorecase();
		}
	}, false)

	// functions
	function get_params() {
		var params = {};
		var paramsarr = window.location.search.substr(1).split('&');
		for (var i = 0; i < paramsarr.length; ++i) {
			var tmp = paramsarr[i].split("=");
			if (!tmp[0] || !tmp[1]) continue;
			params[tmp[0]]  = decodeURIComponent(tmp[1]);
		}
		return params;
	}
	function parse_params(params) {
		var uri = "?";
		for (var key in params) {
			uri += key + '=' + encodeURIComponent(params[key]) + '&';
		}
		if (uri.slice(-1) == "&")
			uri = uri.substring(0, uri.length - 1);
		if (uri == '?')
			uri = window.location.href.split('?')[0];
		return uri;
	}
	function find_child(node, selector) {
		var children = node.querySelectorAll(selector);
		if (children.length) return children[0];
	}
	function find_group(node) {
		var parent = node.parentElement;
		if (!parent) return;
		if (parent.id == "frames") return node;
		return find_group(parent);
	}
	function orig_save(e, attr, val) {
		if (e.attributes["_orig_" + attr] != undefined) return;
		if (e.attributes[attr] == undefined) return;
		if (val == undefined) val = e.attributes[attr].value;
		e.setAttribute("_orig_" + attr, val);
	}
	function orig_load(e, attr) {
		if (e.attributes["_orig_"+attr] == undefined) return;
		e.attributes[attr].value = e.attributes["_orig_" + attr].value;
		e.removeAttribute("_orig_"+attr);
	}
	function g_to_text(e) {
		var text = find_child(e, "title").firstChild.nodeValue;
		return (text)
	}
	function g_to_func(e) {
		var func = g_to_text(e);
		// if there's any manipulation we want to do to the function
		// name before it's searched, do it here before returning.
		return (func);
	}
	function update_text(e) {
		var r = find_child(e, "rect");
		var t = find_child(e, "text");
		var w = parseFloat(r.attributes.width.value) -3;
		var txt = find_child(e, "title").textContent.replace(/\([^(]*\)$/,"");
		t.attributes.x.value = parseFloat(r.attributes.x.value) + 3;

		// Smaller than this size won't fit anything
		if (w < 2 * 12 * 0.59) {
			t.textContent = "";
			return;
		}

		t.textContent = txt;
		var sl = t.getSubStringLength(0, txt.length);
		// check if only whitespace or if we can fit the entire string into width w
		if (/^ *$/.test(txt) || sl < w)
			return;

		// this isn't perfect, but gives a good starting point
		// and avoids calling getSubStringLength too often
		var start = Math.floor((w/sl) * txt.length);
		for (var x = start; x > 0; x = x-2) {
			if (t.getSubStringLength(0, x + 2) <= w) {
				t.textContent = txt.substring(0, x) + "..";
				return;
			}
		}
		t.textContent = "";
	}

	// zoom
	function zoom_reset(e) {
		if (e.attributes != undefined) {
			orig_load(e, "x");
			orig_load(e, "width");
		}
		if (e.childNodes == undefined) return;
		for (var i = 0, c = e.childNodes; i < c.length; i++) {
			zoom_reset(c[i]);
		}
	}
	function zoom_child(e, x, ratio) {
		if (e.attributes != undefined) {
			if (e.attributes.x != undefined) {
				orig_save(e, "x");
				e.attributes.x.value = (parseFloat(e.attributes.x.value) - x - 10) * ratio + 10;
				if (e.tagName == "text")
					e.attributes.x.value = find_child(e.parentNode, "rect[x]").attributes.x.value + 3;
			}
			if (e.attributes.width != undefined) {
				orig_save(e, "width");
				e.attributes.width.value = parseFloat(e.attributes.width.value) * ratio;
			}
		}

		if (e.childNodes == undefined) return;
		for (var i = 0, c = e.childNodes; i < c.length; i++) {
			zoom_child(c[i], x - 10, ratio);
		}
	}
	function zoom_parent(e) {
		if (e.attributes) {
			if (e.attributes.x != undefined) {
				orig_save(e, "x");
				e.attributes.x.value = 10;
			}
			if (e.attributes.width != undefined) {
				orig_save(e, "width");
				e.attributes.width.value = parseInt(svg.width.baseVal.value) - (10 * 2);
			}
		}
		if (e.childNodes == undefined) return;
		for (var i = 0, c = e.childNodes; i < c.length; i++) {
			zoom_parent(c[i]);
		}
	}
	function zoom(node) {
		var attr = find_child(node, "rect").attributes;
		var width = parseFloat(attr.width.value);
		var xmin = parseFloat(attr.x.value);
		var xmax = parseFloat(xmin + width);
		var ymin = parseFloat(attr.y.value);
		var ratio = (svg.width.baseVal.value - 2 * 10) / width;

		// XXX: Workaround for JavaScript float issues (fix me)
		var fudge = 0.0001;

		unzoombtn.classList.remove("hide");

		var el = document.getElementById("frames").children;
		for (var i = 0; i < el.length; i++) {
			var e = el[i];
			var a = find_child(e, "rect").attributes;
			var ex = parseFloat(a.x.value);
			var ew = parseFloat(a.width.value);
			var upstack;
			// Is it an ancestor
			if (0 == 0) {
				upstack = parseFloat(a.y.value) > ymin;
			} else {
				upstack = parseFloat(a.y.value) < ymin;
			}
			if (upstack) {
				// Direct ancestor
				if (ex <= xmin && (ex+ew+fudge) >= xmax) {
					e.classList.add("parent");
					zoom_parent(e);
					update_text(e);
				}
				// not in current path
				else
					e.classList.add("hide");
			}
			// Children maybe
			else {
				// no common path
				if (ex < xmin || ex + fudge >= xmax) {
					e.classList.add("hide");
				}
				else {
					zoom_child(e, xmin, ratio);
					update_text(e);
				}
			}
		}
		search();
	}
	function unzoom(dont_update_text) {
		unzoombtn.classList.add("hide");
		var el = document.getElementById("frames").children;
		for(var i = 0; i < el.length; i++) {
			el[i].classList.remove("parent");
			el[i].classList.remove("hide");
			zoom_reset(el[i]);
			if(!dont_update_text) update_text(el[i]);
		}
		search();
	}
	function clearzoom() {
		unzoom();

		// remove zoom state
		var params = get_params();
		if (params.x) delete params.x;
		if (params.y) delete params.y;
		history.replaceState(null, null, parse_params(params));
	}

	// search
	function toggle_ignorecase() {
		ignorecase = !ignorecase;
		if (ignorecase) {
			ignorecaseBtn.classList.add("show");
		} else {
			ignorecaseBtn.classList.remove("show");
		}
		reset_search();
		search();
	}
	function reset_search() {
		var el = document.querySelectorAll("#frames rect");
		for (var i = 0; i < el.length; i++) {
			orig_load(el[i], "fill")
		}
		var params = get_params();
		delete params.s;
		history.replaceState(null, null, parse_params(params));
	}
	function search_prompt() {
		if (!searching) {
			var term = prompt("Enter a search term (regexp " +
			    "allowed, eg: ^ext4_)"
			    + (ignorecase ? ", ignoring case" : "")
			    + "\nPress Ctrl-i to toggle case sensitivity", "");
			if (term != null) search(term);
		} else {
			reset_search();
			searching = 0;
			currentSearchTerm = null;
			searchbtn.classList.remove("show");
			searchbtn.firstChild.nodeValue = "Search"
			matchedtxt.classList.add("hide");
			matchedtxt.firstChild.nodeValue = ""
		}
	}
	function search(term) {
		if (term) currentSearchTerm = term;
		if (currentSearchTerm === null) return;

		var re = new RegExp(currentSearchTerm, ignorecase ? 'i' : '');
		var el = document.getElementById("frames").children;
		var matches = new Object();
		var maxwidth = 0;
		for (var i = 0; i < el.length; i++) {
			var e = el[i];
			var func = g_to_func(e);
			var rect = find_child(e, "rect");
			if (func == null || rect == null)
				continue;

			// Save max width. Only works as we have a root frame
			var w = parseFloat(rect.attributes.width.value);
			if (w > maxwidth)
				maxwidth = w;

			if (func.match(re)) {
				// highlight
				var x = parseFloat(rect.attributes.x.value);
				orig_save(rect, "fill");
				rect.attributes.fill.value = "rgb(230,0,230)";

				// remember matches
				if (matches[x] == undefined) {
					matches[x] = w;
				} else {
					if (w > matches[x]) {
						// overwrite with parent
						matches[x] = w;
					}
				}
				searching = 1;
			}
		}
		if (!searching)
			return;
		var params = get_params();
		params.s = currentSearchTerm;
		history.replaceState(null, null, parse_params(params));

		searchbtn.classList.add("show");
		searchbtn.firstChild.nodeValue = "Reset Search";

		// calculate percent matched, excluding vertical overlap
		var count = 0;
		var lastx = -1;
		var lastw = 0;
		var keys = Array();
		for (k in matches) {
			if (matches.hasOwnProperty(k))
				keys.push(k);
		}
		// sort the matched frames by their x location
		// ascending, then width descending
		keys.sort(function(a, b){
			return a - b;
		});
		// Step through frames saving only the biggest bottom-up frames
		// thanks to the sort order. This relies on the tree property
		// where children are always smaller than their parents.
		var fudge = 0.0001;	// JavaScript floating point
		for (var k in keys) {
			var x = parseFloat(keys[k]);
			var w = matches[keys[k]];
			if (x >= lastx + lastw - fudge) {
				count += w;
				lastx = x;
				lastw = w;
			}
		}
		// display matched percent
		matchedtxt.classList.remove("hide");
		var pct = 100 * count / maxwidth;
		if (pct != 100) pct = pct.toFixed(1)
		matchedtxt.firstChild.nodeValue = "Matched: " + pct + "%";
	}
]]>
</script>
<rect x="0.0" y="0" width="1200.0" height="294.0" fill="url(#background)"  />
<text id="title" x="600.00" y="24" >Flame Graph</text>
<text id="details" x="10.00" y="277" > </text>
<text id="unzoom" x="10.00" y="24" class="hide">Reset Zoom</text>
<text id="search" x="1090.00" y="24" >Search</text>
<text id="ignorecase" x="1174.00" y="24" >ic</text>
<text id="matched" x="1090.00" y="277" > </text>
<g id="frames">
<g >
<title>D3DKMTCreateSynchronizationObject2 (1,001,001 samples, 0.14%)</title><rect x="746.5" y="133" width="1.7" height="15.0" fill="rgb(236,144,34)" rx="2" ry="2" />
<text  x="749.54" y="143.5" ></text>
</g>
<g >
<title>read (1,001,001 samples, 0.14%)</title><rect x="776.8" y="101" width="1.7" height="15.0" fill="rgb(252,216,51)" rx="2" ry="2" />
<text  x="779.78" y="111.5" ></text>
</g>
<g >
<title>cudaLaunchKernel (3,003,003 samples, 0.43%)</title><rect x="183.0" y="133" width="5.1" height="15.0" fill="rgb(216,51,12)" rx="2" ry="2" />
<text  x="186.02" y="143.5" ></text>
</g>
<g >
<title>D3DKMTDestroyContext (1,001,001 samples, 0.14%)</title><rect x="748.2" y="133" width="1.7" height="15.0" fill="rgb(225,92,22)" rx="2" ry="2" />
<text  x="751.22" y="143.5" ></text>
</g>
<g >
<title>malloc (1,001,001 samples, 0.14%)</title><rect x="783.5" y="133" width="1.7" height="15.0" fill="rgb(230,119,28)" rx="2" ry="2" />
<text  x="786.50" y="143.5" ></text>
</g>
<g >
<title>ioctl (3,003,003 samples, 0.43%)</title><rect x="699.5" y="133" width="5.0" height="15.0" fill="rgb(231,122,29)" rx="2" ry="2" />
<text  x="702.51" y="143.5" ></text>
</g>
<g >
<title>std::_Vector_base&lt;float, std::allocator&lt;float&gt; &gt;::_M_deallocate (3,003,003 samples, 0.43%)</title><rect x="1183.3" y="149" width="5.0" height="15.0" fill="rgb(245,184,44)" rx="2" ry="2" />
<text  x="1186.28" y="159.5" ></text>
</g>
<g >
<title>float* std::__fill_n_a&lt;float*, unsigned long, float&gt; (25,025,025 samples, 3.56%)</title><rect x="1053.9" y="69" width="42.0" height="15.0" fill="rgb(224,87,20)" rx="2" ry="2" />
<text  x="1056.94" y="79.5" >flo..</text>
</g>
<g >
<title>dlopen (3,003,003 samples, 0.43%)</title><rect x="728.1" y="149" width="5.0" height="15.0" fill="rgb(216,51,12)" rx="2" ry="2" />
<text  x="731.06" y="159.5" ></text>
</g>
<g >
<title>fread (3,003,003 samples, 0.43%)</title><rect x="776.8" y="133" width="5.0" height="15.0" fill="rgb(243,175,41)" rx="2" ry="2" />
<text  x="779.78" y="143.5" ></text>
</g>
<g >
<title>snprintf (1,001,001 samples, 0.14%)</title><rect x="803.7" y="149" width="1.6" height="15.0" fill="rgb(253,220,52)" rx="2" ry="2" />
<text  x="806.65" y="159.5" ></text>
</g>
<g >
<title>std::vector&lt;float, std::allocator&lt;float&gt; &gt;::_M_default_initialize (46,046,046 samples, 6.55%)</title><rect x="1106.0" y="165" width="77.3" height="15.0" fill="rgb(237,151,36)" rx="2" ry="2" />
<text  x="1109.01" y="175.5" >std::vec..</text>
</g>
<g >
<title>_IO_file_open (1,001,001 samples, 0.14%)</title><rect x="775.1" y="101" width="1.7" height="15.0" fill="rgb(249,205,49)" rx="2" ry="2" />
<text  x="778.10" y="111.5" ></text>
</g>
<g >
<title>random_r (22,022,022 samples, 3.13%)</title><rect x="146.1" y="149" width="36.9" height="15.0" fill="rgb(222,81,19)" rx="2" ry="2" />
<text  x="149.06" y="159.5" >ran..</text>
</g>
<g >
<title>std::allocator&lt;float&gt;::~allocator (1,001,001 samples, 0.14%)</title><rect x="1188.3" y="133" width="1.7" height="15.0" fill="rgb(209,18,4)" rx="2" ry="2" />
<text  x="1191.32" y="143.5" ></text>
</g>
<g >
<title>__gnu_cxx::new_allocator&lt;float&gt;::deallocate (3,003,003 samples, 0.43%)</title><rect x="1183.3" y="117" width="5.0" height="15.0" fill="rgb(205,3,0)" rx="2" ry="2" />
<text  x="1186.28" y="127.5" ></text>
</g>
<g >
<title>sbrk (1,001,001 samples, 0.14%)</title><rect x="795.3" y="117" width="1.6" height="15.0" fill="rgb(209,22,5)" rx="2" ry="2" />
<text  x="798.25" y="127.5" ></text>
</g>
<g >
<title>pthread_mutexattr_setkind_np (1,001,001 samples, 0.14%)</title><rect x="800.3" y="149" width="1.7" height="15.0" fill="rgb(212,36,8)" rx="2" ry="2" />
<text  x="803.29" y="159.5" ></text>
</g>
<g >
<title>cudaFree (1,001,001 samples, 0.14%)</title><rect x="397.2" y="165" width="1.6" height="15.0" fill="rgb(252,216,51)" rx="2" ry="2" />
<text  x="400.15" y="175.5" ></text>
</g>
<g >
<title>ioctl (7,007,007 samples, 1.00%)</title><rect x="679.4" y="133" width="11.7" height="15.0" fill="rgb(231,122,29)" rx="2" ry="2" />
<text  x="682.35" y="143.5" ></text>
</g>
<g >
<title>fopen (2,002,002 samples, 0.28%)</title><rect x="785.2" y="149" width="3.3" height="15.0" fill="rgb(251,211,50)" rx="2" ry="2" />
<text  x="788.18" y="159.5" ></text>
</g>
<g >
<title>ioctl (4,004,004 samples, 0.57%)</title><rect x="664.2" y="133" width="6.8" height="15.0" fill="rgb(231,122,29)" rx="2" ry="2" />
<text  x="667.23" y="143.5" ></text>
</g>
<g >
<title>std::vector&lt;float, std::allocator&lt;float&gt; &gt;::operator[] (6,006,006 samples, 0.85%)</title><rect x="1095.9" y="181" width="10.1" height="15.0" fill="rgb(253,223,53)" rx="2" ry="2" />
<text  x="1098.93" y="191.5" ></text>
</g>
<g >
<title>float* std::__uninitialized_default_n&lt;float*, unsigned long&gt; (46,046,046 samples, 6.55%)</title><rect x="1106.0" y="133" width="77.3" height="15.0" fill="rgb(236,145,34)" rx="2" ry="2" />
<text  x="1109.01" y="143.5" >float* s..</text>
</g>
<g >
<title>D3DKMTCreateSynchronizationObject2 (4,004,004 samples, 0.57%)</title><rect x="664.2" y="149" width="6.8" height="15.0" fill="rgb(236,144,34)" rx="2" ry="2" />
<text  x="667.23" y="159.5" ></text>
</g>
<g >
<title>__pthread_rwlock_wrlock (1,001,001 samples, 0.14%)</title><rect x="721.3" y="149" width="1.7" height="15.0" fill="rgb(251,213,51)" rx="2" ry="2" />
<text  x="724.35" y="159.5" ></text>
</g>
<g >
<title>std::vector&lt;float, std::allocator&lt;float&gt; &gt;::~vector (4,004,004 samples, 0.57%)</title><rect x="1183.3" y="181" width="6.7" height="15.0" fill="rgb(229,114,27)" rx="2" ry="2" />
<text  x="1186.28" y="191.5" ></text>
</g>
<g >
<title>D3DKMTEscape (5,005,005 samples, 0.71%)</title><rect x="671.0" y="149" width="8.4" height="15.0" fill="rgb(250,208,49)" rx="2" ry="2" />
<text  x="673.95" y="159.5" ></text>
</g>
<g >
<title>D3DKMTQueryAdapterInfo (3,003,003 samples, 0.43%)</title><rect x="699.5" y="149" width="5.0" height="15.0" fill="rgb(219,64,15)" rx="2" ry="2" />
<text  x="702.51" y="159.5" ></text>
</g>
<g >
<title>float* std::fill_n&lt;float*, unsigned long, float&gt; (46,046,046 samples, 6.55%)</title><rect x="1106.0" y="101" width="77.3" height="15.0" fill="rgb(241,168,40)" rx="2" ry="2" />
<text  x="1109.01" y="111.5" >float* s..</text>
</g>
<g >
<title>D3DKMTCreateDevice (1,001,001 samples, 0.14%)</title><rect x="743.2" y="133" width="1.7" height="15.0" fill="rgb(206,7,1)" rx="2" ry="2" />
<text  x="746.18" y="143.5" ></text>
</g>
<g >
<title>D3DKMTCreatePagingQueue (8,008,008 samples, 1.14%)</title><rect x="650.8" y="149" width="13.4" height="15.0" fill="rgb(228,106,25)" rx="2" ry="2" />
<text  x="653.79" y="159.5" ></text>
</g>
<g >
<title>brk (1,001,001 samples, 0.14%)</title><rect x="795.3" y="101" width="1.6" height="15.0" fill="rgb(252,220,52)" rx="2" ry="2" />
<text  x="798.25" y="111.5" ></text>
</g>
<g >
<title>rand (93,093,093 samples, 13.24%)</title><rect x="26.8" y="181" width="156.2" height="15.0" fill="rgb(243,179,42)" rx="2" ry="2" />
<text  x="29.80" y="191.5" >rand</text>
</g>
<g >
<title>dxgdmalEnumAdapters (31,031,031 samples, 4.41%)</title><rect x="733.1" y="149" width="52.1" height="15.0" fill="rgb(239,157,37)" rx="2" ry="2" />
<text  x="736.10" y="159.5" >dxgdm..</text>
</g>
<g >
<title>__default_morecore (1,001,001 samples, 0.14%)</title><rect x="795.3" y="133" width="1.6" height="15.0" fill="rgb(230,115,27)" rx="2" ry="2" />
<text  x="798.25" y="143.5" ></text>
</g>
<g >
<title>__isoc99_sscanf (1,001,001 samples, 0.14%)</title><rect x="706.2" y="149" width="1.7" height="15.0" fill="rgb(236,146,35)" rx="2" ry="2" />
<text  x="709.23" y="159.5" ></text>
</g>
<g >
<title>cuGetProcAddress (1,001,001 samples, 0.14%)</title><rect x="726.4" y="149" width="1.7" height="15.0" fill="rgb(211,29,7)" rx="2" ry="2" />
<text  x="729.38" y="159.5" ></text>
</g>
<g >
<title>__mmap (1,001,001 samples, 0.14%)</title><rect x="783.5" y="117" width="1.7" height="15.0" fill="rgb(227,104,25)" rx="2" ry="2" />
<text  x="786.50" y="127.5" ></text>
</g>
<g >
<title>D3DKMTMakeResident (7,007,007 samples, 1.00%)</title><rect x="679.4" y="149" width="11.7" height="15.0" fill="rgb(251,214,51)" rx="2" ry="2" />
<text  x="682.35" y="159.5" ></text>
</g>
<g >
<title>_start (703,181,582 samples, 100.00%)</title><rect x="10.0" y="229" width="1180.0" height="15.0" fill="rgb(245,185,44)" rx="2" ry="2" />
<text  x="13.00" y="239.5" >_start</text>
</g>
<g >
<title>ioctl (1,001,001 samples, 0.14%)</title><rect x="749.9" y="117" width="1.7" height="15.0" fill="rgb(231,122,29)" rx="2" ry="2" />
<text  x="752.90" y="127.5" ></text>
</g>
<g >
<title>read (1,001,001 samples, 0.14%)</title><rect x="781.8" y="101" width="1.7" height="15.0" fill="rgb(252,216,51)" rx="2" ry="2" />
<text  x="784.82" y="111.5" ></text>
</g>
<g >
<title>std::allocator_traits&lt;std::allocator&lt;float&gt; &gt;::deallocate (3,003,003 samples, 0.43%)</title><rect x="1183.3" y="133" width="5.0" height="15.0" fill="rgb(238,155,37)" rx="2" ry="2" />
<text  x="1186.28" y="143.5" ></text>
</g>
<g >
<title>ioctl (11,011,011 samples, 1.57%)</title><rect x="756.6" y="117" width="18.5" height="15.0" fill="rgb(231,122,29)" rx="2" ry="2" />
<text  x="759.62" y="127.5" ></text>
</g>
<g >
<title>ioctl (1,001,001 samples, 0.14%)</title><rect x="743.2" y="117" width="1.7" height="15.0" fill="rgb(231,122,29)" rx="2" ry="2" />
<text  x="746.18" y="127.5" ></text>
</g>
<g >
<title>ioctl (1,001,001 samples, 0.14%)</title><rect x="748.2" y="117" width="1.7" height="15.0" fill="rgb(231,122,29)" rx="2" ry="2" />
<text  x="751.22" y="127.5" ></text>
</g>
<g >
<title>MatrixMulKernel (124,603,004 samples, 17.72%)</title><rect x="188.1" y="133" width="209.1" height="15.0" fill="rgb(215,47,11)" rx="2" ry="2" />
<text  x="191.06" y="143.5" >MatrixMulKernel</text>
</g>
<g >
<title>cudaMemcpy (147,147,147 samples, 20.93%)</title><rect x="807.0" y="165" width="246.9" height="15.0" fill="rgb(246,192,46)" rx="2" ry="2" />
<text  x="810.01" y="175.5" >cudaMemcpy</text>
</g>
<g >
<title>_dl_catch_exception (3,003,003 samples, 0.43%)</title><rect x="728.1" y="101" width="5.0" height="15.0" fill="rgb(253,223,53)" rx="2" ry="2" />
<text  x="731.06" y="111.5" ></text>
</g>
<g >
<title>pthread_create (2,002,002 samples, 0.28%)</title><rect x="796.9" y="149" width="3.4" height="15.0" fill="rgb(236,146,35)" rx="2" ry="2" />
<text  x="799.93" y="159.5" ></text>
</g>
<g >
<title>__open64 (1,001,001 samples, 0.14%)</title><rect x="719.7" y="149" width="1.6" height="15.0" fill="rgb(247,196,47)" rx="2" ry="2" />
<text  x="722.67" y="159.5" ></text>
</g>
<g >
<title>ioctl (1,001,001 samples, 0.14%)</title><rect x="746.5" y="117" width="1.7" height="15.0" fill="rgb(231,122,29)" rx="2" ry="2" />
<text  x="749.54" y="127.5" ></text>
</g>
<g >
<title>_IO_file_seekoff (1,001,001 samples, 0.14%)</title><rect x="781.8" y="117" width="1.7" height="15.0" fill="rgb(229,112,26)" rx="2" ry="2" />
<text  x="784.82" y="127.5" ></text>
</g>
<g >
<title>ioctl (1,001,001 samples, 0.14%)</title><rect x="704.5" y="133" width="1.7" height="15.0" fill="rgb(231,122,29)" rx="2" ry="2" />
<text  x="707.55" y="143.5" ></text>
</g>
<g >
<title>ioctl (2,002,002 samples, 0.28%)</title><rect x="1050.6" y="133" width="3.3" height="15.0" fill="rgb(231,122,29)" rx="2" ry="2" />
<text  x="1053.58" y="143.5" ></text>
</g>
<g >
<title>ioctl (2,002,002 samples, 0.28%)</title><rect x="751.6" y="117" width="3.3" height="15.0" fill="rgb(231,122,29)" rx="2" ry="2" />
<text  x="754.58" y="127.5" ></text>
</g>
<g >
<title>ioctl (33,033,033 samples, 4.70%)</title><rect x="575.2" y="133" width="55.4" height="15.0" fill="rgb(231,122,29)" rx="2" ry="2" />
<text  x="578.21" y="143.5" >ioctl</text>
</g>
<g >
<title>D3DKMTSubmitCommandToHwQueue (2,002,002 samples, 0.28%)</title><rect x="1050.6" y="149" width="3.3" height="15.0" fill="rgb(249,205,49)" rx="2" ry="2" />
<text  x="1053.58" y="159.5" ></text>
</g>
<g >
<title>MatrixMulKernel (3,003,003 samples, 0.43%)</title><rect x="183.0" y="165" width="5.1" height="15.0" fill="rgb(215,47,11)" rx="2" ry="2" />
<text  x="186.02" y="175.5" ></text>
</g>
<g >
<title>__device_stub__Z15MatrixMulKernelPKfS0_Pfi (3,003,003 samples, 0.43%)</title><rect x="183.0" y="149" width="5.1" height="15.0" fill="rgb(220,70,16)" rx="2" ry="2" />
<text  x="186.02" y="159.5" ></text>
</g>
<g >
<title>ioctl (1,001,001 samples, 0.14%)</title><rect x="397.2" y="133" width="1.6" height="15.0" fill="rgb(231,122,29)" rx="2" ry="2" />
<text  x="400.15" y="143.5" ></text>
</g>
<g >
<title>void std::__fill_a&lt;float*, float&gt; (46,046,046 samples, 6.55%)</title><rect x="1106.0" y="69" width="77.3" height="15.0" fill="rgb(215,50,12)" rx="2" ry="2" />
<text  x="1109.01" y="79.5" >void std..</text>
</g>
<g >
<title>munmap (3,003,003 samples, 0.43%)</title><rect x="1183.3" y="85" width="5.0" height="15.0" fill="rgb(238,155,37)" rx="2" ry="2" />
<text  x="1186.28" y="95.5" ></text>
</g>
<g >
<title>std::_Vector_base&lt;float, std::allocator&lt;float&gt; &gt;::_Vector_impl::~_Vector_impl (1,001,001 samples, 0.14%)</title><rect x="1188.3" y="149" width="1.7" height="15.0" fill="rgb(249,204,48)" rx="2" ry="2" />
<text  x="1191.32" y="159.5" ></text>
</g>
<g >
<title>__gnu_cxx::__enable_if&lt;std::__is_scalar&lt;float&gt;::__value, void&gt;::__type std::__fill_a1&lt;float*, float&gt; (46,046,046 samples, 6.55%)</title><rect x="1106.0" y="53" width="77.3" height="15.0" fill="rgb(244,182,43)" rx="2" ry="2" />
<text  x="1109.01" y="63.5" >__gnu_cx..</text>
</g>
<g >
<title>cuDriverGetVersion (1,001,001 samples, 0.14%)</title><rect x="724.7" y="149" width="1.7" height="15.0" fill="rgb(209,20,4)" rx="2" ry="2" />
<text  x="727.70" y="159.5" ></text>
</g>
<g >
<title>std::_Vector_base&lt;float, std::allocator&lt;float&gt; &gt;::~_Vector_base (4,004,004 samples, 0.57%)</title><rect x="1183.3" y="165" width="6.7" height="15.0" fill="rgb(228,108,26)" rx="2" ry="2" />
<text  x="1186.28" y="175.5" ></text>
</g>
<g >
<title>__device_stub__Z15MatrixMulKernelPKfS0_Pfi (124,603,004 samples, 17.72%)</title><rect x="188.1" y="165" width="209.1" height="15.0" fill="rgb(220,70,16)" rx="2" ry="2" />
<text  x="191.06" y="175.5" >__device_stub__Z15MatrixMul..</text>
</g>
<g >
<title>D3DKMTCreateHwQueue (11,011,011 samples, 1.57%)</title><rect x="632.3" y="149" width="18.5" height="15.0" fill="rgb(207,10,2)" rx="2" ry="2" />
<text  x="635.32" y="159.5" ></text>
</g>
<g >
<title>malloc (4,004,004 samples, 0.57%)</title><rect x="790.2" y="149" width="6.7" height="15.0" fill="rgb(230,119,28)" rx="2" ry="2" />
<text  x="793.22" y="159.5" ></text>
</g>
<g >
<title>main (703,181,582 samples, 100.00%)</title><rect x="10.0" y="197" width="1180.0" height="15.0" fill="rgb(243,179,42)" rx="2" ry="2" />
<text  x="13.00" y="207.5" >main</text>
</g>
<g >
<title>D3DKMTEnumAdapters3 (1,001,001 samples, 0.14%)</title><rect x="749.9" y="133" width="1.7" height="15.0" fill="rgb(238,152,36)" rx="2" ry="2" />
<text  x="752.90" y="143.5" ></text>
</g>
<g >
<title>__mmap (2,002,002 samples, 0.28%)</title><rect x="716.3" y="149" width="3.4" height="15.0" fill="rgb(227,104,25)" rx="2" ry="2" />
<text  x="719.31" y="159.5" ></text>
</g>
<g >
<title>__strdup (1,001,001 samples, 0.14%)</title><rect x="723.0" y="149" width="1.7" height="15.0" fill="rgb(232,125,29)" rx="2" ry="2" />
<text  x="726.02" y="159.5" ></text>
</g>
<g >
<title>free (3,003,003 samples, 0.43%)</title><rect x="1183.3" y="101" width="5.0" height="15.0" fill="rgb(213,38,9)" rx="2" ry="2" />
<text  x="1186.28" y="111.5" ></text>
</g>
<g >
<title>read (2,002,002 samples, 0.28%)</title><rect x="778.5" y="117" width="3.3" height="15.0" fill="rgb(252,216,51)" rx="2" ry="2" />
<text  x="781.46" y="127.5" ></text>
</g>
<g >
<title>float* std::__uninitialized_default_n_a&lt;float*, unsigned long, float&gt; (46,046,046 samples, 6.55%)</title><rect x="1106.0" y="149" width="77.3" height="15.0" fill="rgb(205,3,0)" rx="2" ry="2" />
<text  x="1109.01" y="159.5" >float* s..</text>
</g>
<g >
<title>cudaLaunchKernel (124,603,004 samples, 17.72%)</title><rect x="188.1" y="149" width="209.1" height="15.0" fill="rgb(216,51,12)" rx="2" ry="2" />
<text  x="191.06" y="159.5" >cudaLaunchKernel</text>
</g>
<g >
<title>std::vector&lt;float, std::allocator&lt;float&gt; &gt;::vector (46,046,046 samples, 6.55%)</title><rect x="1106.0" y="181" width="77.3" height="15.0" fill="rgb(243,179,42)" rx="2" ry="2" />
<text  x="1109.01" y="191.5" >std::vec..</text>
</g>
<g >
<title>__open64 (1,001,001 samples, 0.14%)</title><rect x="786.9" y="101" width="1.6" height="15.0" fill="rgb(247,196,47)" rx="2" ry="2" />
<text  x="789.86" y="111.5" ></text>
</g>
<g >
<title>random (93,093,093 samples, 13.24%)</title><rect x="26.8" y="165" width="156.2" height="15.0" fill="rgb(222,81,19)" rx="2" ry="2" />
<text  x="29.80" y="175.5" >random</text>
</g>
<g >
<title>ioctl (11,011,011 samples, 1.57%)</title><rect x="632.3" y="133" width="18.5" height="15.0" fill="rgb(231,122,29)" rx="2" ry="2" />
<text  x="635.32" y="143.5" ></text>
</g>
<g >
<title>float* std::__fill_n_a&lt;float*, unsigned long, float&gt; (46,046,046 samples, 6.55%)</title><rect x="1106.0" y="85" width="77.3" height="15.0" fill="rgb(224,87,20)" rx="2" ry="2" />
<text  x="1109.01" y="95.5" >float* s..</text>
</g>
<g >
<title>getenv (1,001,001 samples, 0.14%)</title><rect x="788.5" y="149" width="1.7" height="15.0" fill="rgb(221,73,17)" rx="2" ry="2" />
<text  x="791.54" y="159.5" ></text>
</g>
<g >
<title>fopen (1,001,001 samples, 0.14%)</title><rect x="775.1" y="133" width="1.7" height="15.0" fill="rgb(251,211,50)" rx="2" ry="2" />
<text  x="778.10" y="143.5" ></text>
</g>
<g >
<title>_IO_file_open (1,001,001 samples, 0.14%)</title><rect x="786.9" y="117" width="1.6" height="15.0" fill="rgb(249,205,49)" rx="2" ry="2" />
<text  x="789.86" y="127.5" ></text>
</g>
<g >
<title>D3DKMTCreateContextVirtual (1,001,001 samples, 0.14%)</title><rect x="630.6" y="149" width="1.7" height="15.0" fill="rgb(244,181,43)" rx="2" ry="2" />
<text  x="633.64" y="159.5" ></text>
</g>
<g >
<title>runMatrixMul (544,022,423 samples, 77.37%)</title><rect x="183.0" y="181" width="912.9" height="15.0" fill="rgb(246,191,45)" rx="2" ry="2" />
<text  x="186.02" y="191.5" >runMatrixMul</text>
</g>
<g >
<title>__gnu_cxx::__enable_if&lt;std::__is_scalar&lt;float&gt;::__value, void&gt;::__type std::__fill_a1&lt;float*, float&gt; (25,025,025 samples, 3.56%)</title><rect x="1053.9" y="37" width="42.0" height="15.0" fill="rgb(244,182,43)" rx="2" ry="2" />
<text  x="1056.94" y="47.5" >__g..</text>
</g>
<g >
<title>std::vector&lt;float, std::allocator&lt;float&gt; &gt;::vector (25,025,025 samples, 3.56%)</title><rect x="1053.9" y="165" width="42.0" height="15.0" fill="rgb(243,179,42)" rx="2" ry="2" />
<text  x="1056.94" y="175.5" >std..</text>
</g>
<g >
<title>__open64 (1,001,001 samples, 0.14%)</title><rect x="775.1" y="85" width="1.7" height="15.0" fill="rgb(247,196,47)" rx="2" ry="2" />
<text  x="778.10" y="95.5" ></text>
</g>
<g >
<title>float* std::__uninitialized_default_n_1&lt;true&gt;::__uninit_default_n&lt;float*, unsigned long&gt; (46,046,046 samples, 6.55%)</title><rect x="1106.0" y="117" width="77.3" height="15.0" fill="rgb(239,160,38)" rx="2" ry="2" />
<text  x="1109.01" y="127.5" >float* s..</text>
</g>
<g >
<title>std::vector&lt;float, std::allocator&lt;float&gt; &gt;::_M_default_initialize (25,025,025 samples, 3.56%)</title><rect x="1053.9" y="149" width="42.0" height="15.0" fill="rgb(237,151,36)" rx="2" ry="2" />
<text  x="1056.94" y="159.5" >std..</text>
</g>
<g >
<title>__libc_start_main (703,181,582 samples, 100.00%)</title><rect x="10.0" y="213" width="1180.0" height="15.0" fill="rgb(236,142,34)" rx="2" ry="2" />
<text  x="13.00" y="223.5" >__libc_start_main</text>
</g>
<g >
<title>cudaMalloc (243,243,243 samples, 34.59%)</title><rect x="398.8" y="165" width="408.2" height="15.0" fill="rgb(219,67,16)" rx="2" ry="2" />
<text  x="401.83" y="175.5" >cudaMalloc</text>
</g>
<g >
<title>D3DKMTReserveGpuVirtualAddress (1,001,001 samples, 0.14%)</title><rect x="704.5" y="149" width="1.7" height="15.0" fill="rgb(228,106,25)" rx="2" ry="2" />
<text  x="707.55" y="159.5" ></text>
</g>
<g >
<title>D3DKMTMapGpuVirtualAddress (5,005,005 samples, 0.71%)</title><rect x="691.1" y="149" width="8.4" height="15.0" fill="rgb(209,19,4)" rx="2" ry="2" />
<text  x="694.11" y="159.5" ></text>
</g>
<g >
<title>__libc_calloc (5,005,005 samples, 0.71%)</title><rect x="707.9" y="149" width="8.4" height="15.0" fill="rgb(205,4,0)" rx="2" ry="2" />
<text  x="710.91" y="159.5" ></text>
</g>
<g >
<title>float* std::__uninitialized_default_n&lt;float*, unsigned long&gt; (25,025,025 samples, 3.56%)</title><rect x="1053.9" y="117" width="42.0" height="15.0" fill="rgb(236,145,34)" rx="2" ry="2" />
<text  x="1056.94" y="127.5" >flo..</text>
</g>
<g >
<title>_IO_file_fopen (1,001,001 samples, 0.14%)</title><rect x="775.1" y="117" width="1.7" height="15.0" fill="rgb(240,164,39)" rx="2" ry="2" />
<text  x="778.10" y="127.5" ></text>
</g>
<g >
<title>ioctl (5,005,005 samples, 0.71%)</title><rect x="691.1" y="133" width="8.4" height="15.0" fill="rgb(231,122,29)" rx="2" ry="2" />
<text  x="694.11" y="143.5" ></text>
</g>
<g >
<title>write (1,001,001 samples, 0.14%)</title><rect x="805.3" y="149" width="1.7" height="15.0" fill="rgb(228,107,25)" rx="2" ry="2" />
<text  x="808.33" y="159.5" ></text>
</g>
<g >
<title>all (703,181,582 samples, 100%)</title><rect x="10.0" y="245" width="1180.0" height="15.0" fill="rgb(213,39,9)" rx="2" ry="2" />
<text  x="13.00" y="255.5" ></text>
</g>
<g >
<title>__mmap (1,001,001 samples, 0.14%)</title><rect x="798.6" y="133" width="1.7" height="15.0" fill="rgb(227,104,25)" rx="2" ry="2" />
<text  x="801.61" y="143.5" ></text>
</g>
<g >
<title>_dl_catch_exception (3,003,003 samples, 0.43%)</title><rect x="728.1" y="117" width="5.0" height="15.0" fill="rgb(253,223,53)" rx="2" ry="2" />
<text  x="731.06" y="127.5" ></text>
</g>
<g >
<title>_dl_catch_exception (3,003,003 samples, 0.43%)</title><rect x="728.1" y="85" width="5.0" height="15.0" fill="rgb(253,223,53)" rx="2" ry="2" />
<text  x="731.06" y="95.5" ></text>
</g>
<g >
<title>_IO_file_fopen (2,002,002 samples, 0.28%)</title><rect x="785.2" y="133" width="3.3" height="15.0" fill="rgb(240,164,39)" rx="2" ry="2" />
<text  x="788.18" y="143.5" ></text>
</g>
<g >
<title>ioctl (1,001,001 samples, 0.14%)</title><rect x="630.6" y="133" width="1.7" height="15.0" fill="rgb(231,122,29)" rx="2" ry="2" />
<text  x="633.64" y="143.5" ></text>
</g>
<g >
<title>_IO_file_underflow (1,001,001 samples, 0.14%)</title><rect x="776.8" y="117" width="1.7" height="15.0" fill="rgb(209,21,5)" rx="2" ry="2" />
<text  x="779.78" y="127.5" ></text>
</g>
<g >
<title>D3DKMTQueryAdapterInfo (12,012,012 samples, 1.71%)</title><rect x="754.9" y="133" width="20.2" height="15.0" fill="rgb(219,64,15)" rx="2" ry="2" />
<text  x="757.94" y="143.5" ></text>
</g>
<g >
<title>D3DKMTDestroyAllocation2 (1,001,001 samples, 0.14%)</title><rect x="397.2" y="149" width="1.6" height="15.0" fill="rgb(235,139,33)" rx="2" ry="2" />
<text  x="400.15" y="159.5" ></text>
</g>
<g >
<title>D3DKMTCreateAllocation2 (33,033,033 samples, 4.70%)</title><rect x="575.2" y="149" width="55.4" height="15.0" fill="rgb(254,226,54)" rx="2" ry="2" />
<text  x="578.21" y="159.5" >D3DKM..</text>
</g>
<g >
<title>void std::__fill_a&lt;float*, float&gt; (25,025,025 samples, 3.56%)</title><rect x="1053.9" y="53" width="42.0" height="15.0" fill="rgb(215,50,12)" rx="2" ry="2" />
<text  x="1056.94" y="63.5" >voi..</text>
</g>
<g >
<title>D3DKMTCreatePagingQueue (1,001,001 samples, 0.14%)</title><rect x="744.9" y="133" width="1.6" height="15.0" fill="rgb(228,106,25)" rx="2" ry="2" />
<text  x="747.86" y="143.5" ></text>
</g>
<g >
<title>qsort_r (1,001,001 samples, 0.14%)</title><rect x="802.0" y="149" width="1.7" height="15.0" fill="rgb(237,150,36)" rx="2" ry="2" />
<text  x="804.97" y="159.5" ></text>
</g>
<g >
<title>ioctl (5,005,005 samples, 0.71%)</title><rect x="671.0" y="133" width="8.4" height="15.0" fill="rgb(231,122,29)" rx="2" ry="2" />
<text  x="673.95" y="143.5" ></text>
</g>
<g >
<title>ioctl (8,008,008 samples, 1.14%)</title><rect x="650.8" y="133" width="13.4" height="15.0" fill="rgb(231,122,29)" rx="2" ry="2" />
<text  x="653.79" y="143.5" ></text>
</g>
<g >
<title>float* std::__uninitialized_default_n_1&lt;true&gt;::__uninit_default_n&lt;float*, unsigned long&gt; (25,025,025 samples, 3.56%)</title><rect x="1053.9" y="101" width="42.0" height="15.0" fill="rgb(239,160,38)" rx="2" ry="2" />
<text  x="1056.94" y="111.5" >flo..</text>
</g>
<g >
<title>float* std::__uninitialized_default_n_a&lt;float*, unsigned long, float&gt; (25,025,025 samples, 3.56%)</title><rect x="1053.9" y="133" width="42.0" height="15.0" fill="rgb(205,3,0)" rx="2" ry="2" />
<text  x="1056.94" y="143.5" >flo..</text>
</g>
<g >
<title>float* std::fill_n&lt;float*, unsigned long, float&gt; (25,025,025 samples, 3.56%)</title><rect x="1053.9" y="85" width="42.0" height="15.0" fill="rgb(241,168,40)" rx="2" ry="2" />
<text  x="1056.94" y="95.5" >flo..</text>
</g>
<g >
<title>fseek (1,001,001 samples, 0.14%)</title><rect x="781.8" y="133" width="1.7" height="15.0" fill="rgb(215,48,11)" rx="2" ry="2" />
<text  x="784.82" y="143.5" ></text>
</g>
<g >
<title>ioctl (1,001,001 samples, 0.14%)</title><rect x="744.9" y="117" width="1.6" height="15.0" fill="rgb(231,122,29)" rx="2" ry="2" />
<text  x="747.86" y="127.5" ></text>
</g>
<g >
<title>_dl_catch_error (3,003,003 samples, 0.43%)</title><rect x="728.1" y="133" width="5.0" height="15.0" fill="rgb(223,83,20)" rx="2" ry="2" />
<text  x="731.06" y="143.5" ></text>
</g>
<g >
<title>D3DKMTEscape (2,002,002 samples, 0.28%)</title><rect x="751.6" y="133" width="3.3" height="15.0" fill="rgb(250,208,49)" rx="2" ry="2" />
<text  x="754.58" y="143.5" ></text>
</g>
</g>
</svg>
